# xmcd
#
# Track frame offsets:
#	150
#	12364
#	25491
#	40859
#	57816
#	72185
#	85782
#	95718
#	108561
#	122004
#	136828
#	151391
#	170956
#	183629
#	198361
#	212746
#	227615
#	240911
#	255790
#	268365
#
# Disc length: 3770 seconds
#
# Revision: 2
# Processed by: cddbd v1.5.2PL0 Copyright (c) Steve Scherf et al.
# Submitted via: audiograbber 1.83.01
#
DISCID=150eb814
DTITLE=Gene Watson - Matters of the heart
DYEAR=2008
DGENRE=Country
TTITLE0=Fourteen carat mind
TTITLE1=Sometimes I get lucky and forget
TTITLE2=Maybe I should have been listening
TTITLE3=What she don't know won't hurt her
TTITLE4=You sure make cheating seem easy
TTITLE5=You're just another beer drinking song
TTITLE6=The girl I used to run around on
TTITLE7=Till melinda comes around
TTITLE8=Roads and other reasons
TTITLE9=Old loves never die
TTITLE10=Baby me baby
TTITLE11=You waltzed yourself right into my life
TTITLE12=If I were you I'd fall in love with me
TTITLE13=Lonely me
TTITLE14=From cotton to satin
TTITLE15=Three
TTITLE16=Come back home
TTITLE17=Something bout bein gone
TTITLE18=Thinking bout leaving
TTITLE19=This dream's on me
EXTD=
EXTT0=
EXTT1=
EXTT2=
EXTT3=
EXTT4=
EXTT5=
EXTT6=
EXTT7=
EXTT8=
EXTT9=
EXTT10=
EXTT11=
EXTT12=
EXTT13=
EXTT14=
EXTT15=
EXTT16=
EXTT17=
EXTT18=
EXTT19=
PLAYORDER=
